<svg width="26" height="26" viewBox="0 0 26 26" fill="none" xmlns="http://www.w3.org/2000/svg">
<path fill-rule="evenodd" clip-rule="evenodd" d="M9.13928 1.85715C9.60357 1.85715 9.98053 2.23665 9.98053 2.70518C9.98053 3.1726 9.60468 3.5521 9.13928 3.5521L7.33852 3.55321C5.84396 3.55544 4.62797 4.78075 4.62797 6.28651V8.39657C4.62797 8.86399 4.24991 9.24461 3.78563 9.24461C3.32134 9.24461 2.94438 8.86399 2.94438 8.39657V6.28651C2.94438 3.84702 4.91539 1.86049 7.33741 1.85826L9.13818 1.85715H9.13928ZM17.0685 1.85745H18.8295C21.2581 1.85745 23.2324 3.84509 23.2324 6.29014V8.39687C23.2324 8.86429 22.8566 9.2449 22.3912 9.2449C21.9269 9.2449 21.55 8.86429 21.55 8.39687V6.29014C21.55 4.77993 20.3295 3.55129 18.8295 3.55129H17.0685C16.6042 3.55129 16.2272 3.1729 16.2272 2.70548C16.2272 2.23695 16.6042 1.85745 17.0685 1.85745ZM16.1421 6.1048H10.0357C8.63837 6.11926 7.51524 7.26889 7.5274 8.67672V10.0901C7.53072 10.2548 7.66226 10.3895 7.82587 10.395H18.3497C18.5144 10.3906 18.6459 10.2559 18.6515 10.0901V8.67672C18.6526 7.99673 18.3917 7.34346 17.9208 6.85712C17.4532 6.37523 16.8109 6.1048 16.1421 6.1048ZM1.77094 12.1182H24.4071C24.8714 12.1182 25.2483 12.4977 25.2483 12.9662C25.2483 13.4337 24.8714 13.8121 24.4071 13.8121H23.2331V17.8519C23.2331 20.2981 21.2577 22.2857 18.8301 22.2857H17.0692C16.6038 22.2857 16.2268 21.9062 16.2268 21.4377C16.2268 20.9703 16.6038 20.5908 17.0692 20.5908H18.8301C20.3302 20.5908 21.5506 19.3632 21.5506 17.8519V13.8121H18.651V14.9372C18.6621 16.345 17.5401 17.4958 16.1417 17.5091H10.0352C8.63794 17.4958 7.51592 16.345 7.52698 14.9372V13.8121H4.6274V17.8563C4.6274 19.3621 5.84449 20.5874 7.34016 20.5896L9.13982 20.5908C9.6041 20.5908 9.98106 20.9703 9.98106 21.4377C9.97995 21.9062 9.6041 22.2857 9.13871 22.2857L7.33794 22.2846C4.91592 22.2824 2.94381 20.2958 2.94381 17.8563V13.8121H1.77094C1.30665 13.8121 0.928589 13.4337 0.928589 12.9662C0.928589 12.4977 1.30665 12.1182 1.77094 12.1182Z" fill="white"/>
</svg>
